<?xml version="1.0" encoding="utf-8"?>
<!-- Generator: Adobe Illustrator 14.0.0, SVG Export Plug-In  -->
<!DOCTYPE svg PUBLIC "-//W3C//DTD SVG 1.1//EN" "http://www.w3.org/Graphics/SVG/1.1/DTD/svg11.dtd" [
	<!ENTITY ns_flows "http://ns.adobe.com/Flows/1.0/">
]>
<svg version="1.1"
	 xmlns="http://www.w3.org/2000/svg" xmlns:xlink="http://www.w3.org/1999/xlink" xmlns:a="http://ns.adobe.com/AdobeSVGViewerExtensions/3.0/"
	 x="0px" y="0px" width="40px" height="40px" viewBox="0 0 40 40" enable-background="new 0 0 40 40" xml:space="preserve">
<defs>
</defs>
<rect opacity="0.5" fill="none" width="40" height="40"/>
<polygon points="35,8 17,8 17,5 3,5 3,11 35,11 "/>
<polygon points="17,16 34,16 37,16 37,13 3,13 3,33 17,33 17,30 6,30 6,16 "/>
<path d="M37,18v2h-2v-2h-2v3h-8v-3h-2v2h-2v-2h-2v21h2v-2h2v2h2v-3h8v3h2v-2h2v2h2V18H37z M23,35h-2v-3h2V35z M23,30h-2v-3h2V30z
	 M23,25h-2v-3h2V25z M33,33h-8v-9h8V33z M37,35h-2v-3h2V35z M37,30h-2v-3h2V30z M37,25h-2v-3h2V25z"/>
</svg>
