<?xml version="1.0" encoding="utf-8"?>
<!-- Generator: Adobe Illustrator 14.0.0, SVG Export Plug-In  -->
<!DOCTYPE svg PUBLIC "-//W3C//DTD SVG 1.1//EN" "http://www.w3.org/Graphics/SVG/1.1/DTD/svg11.dtd" [
	<!ENTITY ns_flows "http://ns.adobe.com/Flows/1.0/">
]>
<svg version="1.1"
	 xmlns="http://www.w3.org/2000/svg" xmlns:xlink="http://www.w3.org/1999/xlink" xmlns:a="http://ns.adobe.com/AdobeSVGViewerExtensions/3.0/"
	 x="0px" y="0px" width="40px" height="40px" viewBox="0 0 40 40" enable-background="new 0 0 40 40" xml:space="preserve">
<defs>
</defs>
<rect opacity="0.5" fill="none" width="40" height="40"/>
<path d="M16,28c0-0.338,0.023-0.67,0.05-1H13V11h12v5.394C25.961,16.146,26.963,16,28,16v-2h3v2.394
	c1.064,0.275,2.072,0.687,3,1.225V3h-3v3h-3V3h-3v5H13V3h-3v3H7V3H4v32h3v-3h3v3h3v-5h3.18C16.07,29.348,16,28.684,16,28z M28,8h3v4
	h-3V8z M10,30H7v-4h3V30z M10,24H7v-4h3V24z M10,18H7v-4h3V18z M10,12H7V8h3V12z"/>
<path d="M28,18c-5.523,0-10,4.476-10,10s4.477,10,10,10s10-4.477,10-10S33.523,18,28,18z M21.457,32.588
	c-0.553-0.787-0.965-1.678-1.208-2.637l1.17-0.23l1,2L21.457,32.588z M33.082,34.174l-0.502-0.453l1-2l1.346,0.264
	C34.445,32.82,33.822,33.563,33.082,34.174z M33.869,24.801l-1.148-0.443l0.652,0.885l0.469-0.207c0,0,0.574,0.547,0.547,0.729
	c-0.025,0.184-0.885,1.018-0.885,1.018l-0.754,0.268l-0.994-0.816L31,25.607l0.469,1.121l0.627,0.652c0,0,1.096-0.156,1.252-0.027
	c0.156,0.131-0.209,1.123-0.209,1.123l-1.826,1.877l-0.182,1.877c-1.018,0.523-1.121,1.328-1.121,1.328s-0.262-0.051-0.939,0.707
	c-0.678,0.754-1.408,0.557-1.408,0.557c-0.861,0-1.018-0.557-1.018-0.74c0-0.182-0.859-1.59-0.859-2.061
	c0-0.469,0.26-1.043,0.26-1.043c0.053-0.678-0.678-2.502-0.678-2.502h-0.756l-0.262-0.574c-2.449,0.521-2.555-0.105-2.92-0.783
	s0.053-2.502,0.287-2.789c0.15-0.184,0.949-0.76,1.506-1.152L28.936,25l1-2l-4-1l-2.23,0.84c0.043-0.029,0.072-0.049,0.072-0.049
	l-0.234-0.34c-0.158-0.338,0.859-0.807,0.859-0.807c0.393,0.262,0.652,0,0.652,0l0.104-0.262l-0.104-0.39l0.484-0.602
	C26.314,20.139,27.141,20,28,20c0.9,0,1.762,0.156,2.568,0.432L30,21l1,1l0.947-0.947c2.096,1.197,3.602,3.314,3.961,5.799
	c-0.418-0.84-0.762-1.816-0.762-1.816L33.869,24.801z"/>
</svg>
