<?xml version="1.0" encoding="UTF-8"?>
<!DOCTYPE svg PUBLIC "-//W3C//DTD SVG 1.1 Tiny//EN" "http://www.w3.org/Graphics/SVG/1.1/DTD/svg11-tiny.dtd">
<svg baseProfile="tiny" version="1.1" xmlns="http://www.w3.org/2000/svg" xmlns:xlink="http://www.w3.org/1999/xlink" x="0px" y="0px" width="100%" height="100%" viewBox="0 0 57 49">
<g>
<rect fill="none" width="57" height="49"/>
<g>
<path d="M29.822,38.837c-1.828,0.695-3.812,1.076-5.884,1.076c-9.14,0-16.551-7.41-16.551-16.551    c0-9.143,7.411-16.551,16.551-16.551c9.142,0,16.503,7.425,16.503,16.269c0,0,1.688,0.406,2.588,1.042    c2.979,1.74,4.981,4.972,4.981,8.67c0,2.811-1.159,5.35-3.022,7.173h5.891v2.868H37.973l0,0c-0.002,0-0.004,0-0.004,0    c-3.315,0-6.293-1.539-8.121-4.019L29.822,38.837z"/>
<path fill="#2882C8" d="M23.895,8.771c-7.987,0-14.482,6.498-14.482,14.483c0,2.333,0.568,4.529,1.55,6.484l25.88-12.936    C34.465,12.049,29.561,8.771,23.895,8.771z"/>
<path fill="#005F9B" d="M23.912,37.755c7.986,0,14.482-6.496,14.482-14.483c0-2.332-0.568-4.53-1.551-6.485l-25.88,12.938    C13.342,34.478,18.247,37.755,23.912,37.755z"/>
<path fill="#4F4A44" d="M28.292,9.525l-1.988,3.64l1.261,1.261c0.218,0.022,1.02-1.025,1.02-1.025    c-0.697-0.606,0.321-1.769,1.022-1.05C29.805,12.55,28.292,9.525,28.292,9.525z"/>
<path fill="#4F4A44" d="M32.27,28.279c0,0-0.729-0.08-1.957-0.19c0.354,0.72,1.156,1.329,1.881,1.329    C32.193,29.423,32.27,28.279,32.27,28.279z"/>
<path fill="#4F4A44" d="M19.653,37.416l2.194,0.859v-0.581c1.034,0,2.068-1.034,2.068-2.069v-5.172    c0-0.874-0.996-1.961-1.931-2.063C21.938,28.386,19.653,37.416,19.653,37.416z"/>
<path fill="#4F4A44" d="M22.998,11.947c-1.574,0.195-6.085,0.809-6.085,0.809l-7.478,9.419l4.138,4.139    c0.511-0.514,0.552-1.498,0-2.049s-1.034-1.056-1.034-1.056c-1.17-1.462,0.511-3.304,2.069-2.069l1.034,1.035v2.07    c0,0.517,1.034,0.517,1.034,0v-2.07l2.069-3.104c0,0,0,0,1.034,0c1.513,0.04,3.356-2.417,0.827-3.928    c-0.261-0.133-2.378-1.244-1.861-1.244c0.517,0,2.069,0,2.069,0s-0.002-0.002,1.035,1.035c1.432,1.141,3.306-0.459,2.068-2.069    C23.893,12.843,23.476,12.377,22.998,11.947z"/>
<path fill="#4F4A44" d="M32.193,21.141c1.034,0,1.034-1.034,1.034-1.034v-2.065c0,0,0.007-1.039,1.036-1.039    c0,0,1.512-0.009,3.102,0c0.107,1.172,1.13,1.035,1.13,1.035c-0.117-0.38-0.198-0.575-0.44-1.058    c-0.684-0.952-1.754-2.001-2.586-3.168l-6.379,4.844v1.452c0,1.035,1.035,1.035,1.035,1.035S31.159,21.141,32.193,21.141z"/>
<path fill="#82FF64" d="M19.443,8.393C15.231,9.87,8.766,17.197,8.382,23.188c0.006,0.006,0.011,0.014,0.019,0.021    c1.035,1.036,5.172,5.173,5.172,5.173s-1.034,1.035,0,2.068c0.962,0.963,2.069,2.069,2.069,2.069v3.081l5.172,2.156v-1.1    c1.035,0,2.069-1.034,2.069-2.068v-5.172c0-0.914-1.095-2.069-2.069-2.069c-0.973,0-2.069,0-2.069,0s-0.405-0.404-1.035-1.034    c-0.63-0.631-1.469-0.601-2.069,0c-0.6,0.602-1.034,1.034-1.034,1.034l-2.069-2.069c0.511-0.511,0.551-1.498,0-2.048    c-0.552-0.552-1.035-1.056-1.035-1.056c-0.534-0.534-0.534-1.534,0-2.069c0.532-0.534,1.535-0.534,2.069,0l1.035,1.034v2.069    c0,0.517,1.034,0.517,1.034,0V21.14l2.069-3.103c0,0,0,0,1.035,0c1.034,0,2.069-1.035,2.069-2.069    c0-1.034-1.035-2.069-2.069-2.069c-0.966,0-0.518,0-1.035,0s-0.517-1.034,0-1.034s2.069,0,2.069,0s-0.002-0.002,1.035,1.034    c0.517,0.52,1.552,0.518,2.069,0c0.517-0.517,0.515-1.553,0-2.069C22.822,11.772,20.607,9.556,19.443,8.393z"/>
<path fill="#82FF64" d="M38.826,19.071h-2.495l-2.069,2.069c0,0-2.068,0-3.103,0s-2.069,1.035-2.069,2.069v3.103    c0,0.99,1.101,2.069,2.069,2.069c0,0.013,3.699,0.615,3.699,0.615C39.504,25.601,38.766,21.464,38.826,19.071z"/>
<path fill="#82FF64" d="M31.159,20.106c1.034,0,1.034-1.035,1.034-1.035v-2.065c0,0,0.006-1.039,1.037-1.039h3.101    c0,0,0,1.035,1.034,1.035c0.244,0,0.493,0,0.728,0c-0.921-1.961-8.162-7.845-10.534-8.813l-1.572,1.572v3.106l0.834,0.836    c0.267,0.267,0.768,0.267,1.034,0c0.267-0.265,0.267-0.768,0-1.034l-0.305-0.306c-0.543-0.543,0-1.049,0-1.049    s0.505-0.521,1.022,0c0.518,0.519,1.033,1.04,1.033,1.04s-2.105,2.105-2.584,2.582c-0.479,0.479,0,1.035,0,1.035l1.035,1.034    c0,0,0,1.031,0,2.065c0,1.035,1.034,1.035,1.034,1.035S30.125,20.106,31.159,20.106z"/>
<path fill="#00395D" d="M38.855,19.117l-1.088-0.026c0,0-0.376-1.237-0.828-2.125c1.008,0.015,0.792,0.036,1.18,0.036    C38.442,17.562,38.855,19.117,38.855,19.117z"/>
<path fill="#2F2C29" d="M38.556,18.025c0,0-1.099-0.017-1.083-1.035h0.646C38.119,16.991,38.361,17.524,38.556,18.025z"/>
<path fill="#4E993C" d="M33.216,35.66l-0.036-1.299c0,0,7.418-5.85,4.589-15.271c0,0,0.271,0.008,1.087,0.026    c0.238,0.58,2.885,10.18-5.734,16.57"/>
<path fill="#00395D" d="M33.205,35.65c0,0-4.961,4.25-12.368,2.82L20.8,37.405c0,0,6.553,1.819,12.379-3.04    C33.205,35.601,33.205,35.65,33.205,35.65z"/>
<path fill="#4E993C" d="M20.837,38.469L20.8,37.402c0,0-2.727-0.582-5.181-2.27l0.021,1.264    C15.641,36.394,18.339,38.062,20.837,38.469z"/>
<path fill="#00395D" d="M9.45,24.305l-1.071-1.052c0,0-0.324,8.341,7.262,13.142c-0.021-1.27,0.023-0.943-0.021-1.264    C15.706,34.976,10.304,32.447,9.45,24.305z"/>
<path fill="#4E993C" d="M8.378,23.252l1.071,1.052c0,0-1.136-11.548,10.868-15.085c0,0-0.257-0.255-0.853-0.842    C18.706,8.528,8.605,11.839,8.378,23.252z"/>
<path fill="#00395D" d="M27.593,8.18c0,0-3.899-1.118-8.129,0.197l0.854,0.842c0,0,2.032-0.929,6.34-0.185    C27.688,8.102,27.593,8.18,27.593,8.18z"/>
<path fill="#4E993C" d="M26.658,9.035l0.935-0.854c0,0,7.315,1.418,10.526,8.821l-1.18-0.036    C36.939,16.965,34.456,10.667,26.658,9.035z"/>
<polygon fill="#2F2C29" points="21.805,38.618 21.795,37.589 20.813,37.433 20.813,38.509   "/>
<path fill="#00395D" d="M29.223,37.392l-1.125,0.656c-1.619-2.717-1.821-5.971-0.373-9.066c0.384-0.822,0.867-1.566,1.428-2.227    c-0.024-0.301,0.081,1.645,2.851,1.574L29.223,37.392z"/>
<path fill="#4E993C" d="M31.988,29.059c0,0-1.146-0.25-1.563-0.604c-0.69-0.588-1.344-1.547-1.25-1.734    c1.836-2.161,5.896-3.432,8.625-3.036L31.988,29.059z"/>
<path fill="#030303" d="M33.828,41.771c-2.887-1.126-5.137-3.577-5.785-6.75c-1.037-5.06,2.402-10.044,7.682-11.124    c0.863-0.177,1.721-0.239,2.559-0.195L33.828,41.771z"/>
<g>
<g>
<path fill="#D9D9D9" d="M46.498,29.351c-1.354-3.284-4.588-5.596-8.363-5.596c-4.992,0-9.037,4.046-9.037,9.037      c0,1.688,0.463,3.268,1.266,4.618C41.939,47.027,48.414,34.151,46.498,29.351z"/>
<path d="M36.328,31.892l-4.633-2.318c-0.984,1.751-1.125,4.199,0.003,6.442l4.63-2.317V31.892z"/>
<path d="M39.042,30.987l2.315-4.634c-1.536-0.819-4.055-1.243-6.441-0.002l2.318,4.636H39.042z"/>
<path d="M37.234,34.603l-2.318,4.634c2.127,1.128,4.505,0.963,6.441-0.001l-2.315-4.633H37.234z"/>
<path d="M44.58,29.574l-4.635,2.318v1.807l4.632,2.317C45.4,34.362,45.824,31.914,44.58,29.574z"/>
<path fill="#D9D9D9" d="M40.968,31.758c-0.423-1.154-1.528-1.977-2.829-1.977c-1.666,0-3.014,1.348-3.014,3.014      c0,0.604,0.177,1.168,0.482,1.641C37.091,36.034,41.987,34.692,40.968,31.758z"/>
<path fill="#B2B2B2" d="M45.102,29.936c0.362,0.881,0.57,1.844,0.57,2.856c0,4.161-3.376,7.535-7.537,7.535      c-2.745,0-5.123-1.484-6.438-3.68l-1.369,0.687c1.566,2.688,4.472,4.5,7.807,4.5c4.994,0,9.043-4.048,9.043-9.042      c0-1.256-0.258-2.45-0.721-3.536L45.102,29.936z"/>
<path fill="#B2B2B2" d="M39.535,32.25c0.357,0.771-0.161,2.042-1.396,2.053c-0.541,0-0.99-0.299-1.257-0.723L35.52,34.26      c0.515,0.92,1.488,1.548,2.619,1.548c1.665,0,3.013-1.348,3.013-3.013c0-0.437-0.097-0.85-0.265-1.224L39.535,32.25z"/>
</g>
<path fill="#635E54" d="M50.33,42.114c0,0-9.26-0.009-9.979,0c-1.646,0.021-2.646-0.25-2.646-0.271     c2.729,0.083,4.959-1.209,4.959-1.209l7.666-0.021V42.114z"/>
</g>
</g>
</g>
</svg>
