<?xml version="1.0" encoding="utf-8"?>
<!-- Generator: Adobe Illustrator 14.0.0, SVG Export Plug-In  -->
<!DOCTYPE svg PUBLIC "-//W3C//DTD SVG 1.1//EN" "http://www.w3.org/Graphics/SVG/1.1/DTD/svg11.dtd" [
	<!ENTITY ns_flows "http://ns.adobe.com/Flows/1.0/">
]>
<svg version="1.1"
	 xmlns="http://www.w3.org/2000/svg" xmlns:xlink="http://www.w3.org/1999/xlink" xmlns:a="http://ns.adobe.com/AdobeSVGViewerExtensions/3.0/"
	 x="0px" y="0px" width="98px" height="98px" viewBox="0 0 98 98" enable-background="new 0 0 98 98" xml:space="preserve">
<defs>
</defs>
<path fill="#F1F1F2" d="M84.183,15.504H21.608c-0.975,0-1.764,0.79-1.764,1.763v49.354c0,0.975,0.789,1.763,1.764,1.763h62.574
	c0.974,0,1.764-0.788,1.764-1.763V17.267C85.946,16.294,85.156,15.504,84.183,15.504z"/>
<path opacity="0.4" fill="#FFFFFF" enable-background="new    " d="M84.476,66.77H21.021V60.6h63.455V66.77z M84.476,22.703H21.021
	v-6.17h63.455V22.703z"/>
<linearGradient id="SVGID_1_" gradientUnits="userSpaceOnUse" x1="52.8955" y1="15.5039" x2="52.8955" y2="68.3843">
	<stop  offset="0" style="stop-color:#757575"/>
	<stop  offset="0.2424" style="stop-color:#000000"/>
	<stop  offset="0.8606" style="stop-color:#000000"/>
	<stop  offset="1" style="stop-color:#363636"/>
</linearGradient>
<path fill="url(#SVGID_1_)" d="M84.183,15.504H21.608c-0.975,0-1.764,0.79-1.764,1.763v49.354c0,0.975,0.789,1.763,1.764,1.763
	h62.574c0.974,0,1.764-0.788,1.764-1.763V17.267C85.946,16.294,85.156,15.504,84.183,15.504z M27.777,64.858
	c0,0.486-0.397,0.882-0.881,0.882H23.37c-0.484,0-0.881-0.396-0.881-0.882v-1.762c0-0.484,0.396-0.882,0.881-0.882h3.526
	c0.483,0,0.881,0.397,0.881,0.882V64.858z M27.777,20.792c0,0.485-0.397,0.881-0.881,0.881H23.37c-0.484,0-0.881-0.396-0.881-0.881
	v-1.763c0-0.484,0.396-0.882,0.881-0.882h3.526c0.483,0,0.881,0.397,0.881,0.882V20.792z M35.709,64.858
	c0,0.486-0.397,0.882-0.882,0.882h-3.524c-0.485,0-0.882-0.396-0.882-0.882v-1.762c0-0.484,0.396-0.882,0.882-0.882h3.524
	c0.484,0,0.882,0.397,0.882,0.882V64.858z M35.709,20.792c0,0.485-0.397,0.881-0.882,0.881h-3.524c-0.485,0-0.882-0.396-0.882-0.881
	v-1.763c0-0.484,0.396-0.882,0.882-0.882h3.524c0.484,0,0.882,0.397,0.882,0.882V20.792z M43.642,64.858
	c0,0.486-0.397,0.882-0.881,0.882h-3.525c-0.486,0-0.883-0.396-0.883-0.882v-1.762c0-0.484,0.396-0.882,0.883-0.882h3.525
	c0.483,0,0.881,0.397,0.881,0.882V64.858z M43.642,20.792c0,0.485-0.397,0.881-0.881,0.881h-3.525c-0.486,0-0.883-0.396-0.883-0.881
	v-1.763c0-0.484,0.396-0.882,0.883-0.882h3.525c0.483,0,0.881,0.397,0.881,0.882V20.792z M51.573,64.858
	c0,0.486-0.398,0.882-0.881,0.882h-3.525c-0.486,0-0.881-0.396-0.881-0.882v-1.762c0-0.484,0.395-0.882,0.881-0.882h3.525
	c0.482,0,0.881,0.397,0.881,0.882V64.858z M51.573,20.792c0,0.485-0.398,0.881-0.881,0.881h-3.525c-0.486,0-0.881-0.396-0.881-0.881
	v-1.763c0-0.484,0.395-0.882,0.881-0.882h3.525c0.482,0,0.881,0.397,0.881,0.882V20.792z M59.505,64.858
	c0,0.486-0.397,0.882-0.88,0.882h-3.526c-0.484,0-0.881-0.396-0.881-0.882v-1.762c0-0.484,0.396-0.882,0.881-0.882h3.526
	c0.482,0,0.88,0.397,0.88,0.882V64.858z M59.505,20.792c0,0.485-0.397,0.881-0.88,0.881h-3.526c-0.484,0-0.881-0.396-0.881-0.881
	v-1.763c0-0.484,0.396-0.882,0.881-0.882h3.526c0.482,0,0.88,0.397,0.88,0.882V20.792z M67.438,64.858
	c0,0.486-0.398,0.882-0.883,0.882H63.03c-0.484,0-0.882-0.396-0.882-0.882v-1.762c0-0.484,0.397-0.882,0.882-0.882h3.525
	c0.484,0,0.883,0.397,0.883,0.882V64.858z M67.438,20.792c0,0.485-0.398,0.881-0.883,0.881H63.03c-0.484,0-0.882-0.396-0.882-0.881
	v-1.763c0-0.484,0.397-0.882,0.882-0.882h3.525c0.484,0,0.883,0.397,0.883,0.882V20.792z M75.37,64.858
	c0,0.486-0.397,0.882-0.882,0.882h-3.524c-0.486,0-0.883-0.396-0.883-0.882v-1.762c0-0.484,0.396-0.882,0.883-0.882h3.524
	c0.484,0,0.882,0.397,0.882,0.882V64.858z M75.37,20.792c0,0.485-0.397,0.881-0.882,0.881h-3.524c-0.486,0-0.883-0.396-0.883-0.881
	v-1.763c0-0.484,0.396-0.882,0.883-0.882h3.524c0.484,0,0.882,0.397,0.882,0.882V20.792z M83.302,64.858
	c0,0.486-0.398,0.882-0.882,0.882h-3.525c-0.485,0-0.881-0.396-0.881-0.882v-1.762c0-0.484,0.396-0.882,0.881-0.882h3.525
	c0.483,0,0.882,0.397,0.882,0.882V64.858z M83.302,20.792c0,0.485-0.398,0.881-0.882,0.881h-3.525c-0.485,0-0.881-0.396-0.881-0.881
	v-1.763c0-0.484,0.396-0.882,0.881-0.882h3.525c0.483,0,0.882,0.397,0.882,0.882V20.792z"/>
<path opacity="0.55" fill="#FFFFFF" d="M84.183,15.504H21.608c-0.975,0-1.764,0.79-1.764,1.763v0.881
	c0-0.972,0.789-1.762,1.764-1.762h62.574c0.974,0,1.764,0.79,1.764,1.762v-0.881C85.946,16.294,85.156,15.504,84.183,15.504z"/>
<path opacity="0.1" fill="#FFFFFF" d="M21.608,68.384h62.574c0.974,0,1.764-0.788,1.764-1.763V65.74c0,0.974-0.79,1.763-1.764,1.763
	H21.608c-0.975,0-1.764-0.789-1.764-1.763v0.881C19.845,67.596,20.634,68.384,21.608,68.384z"/>
<linearGradient id="SVGID_2_" gradientUnits="userSpaceOnUse" x1="52.8955" y1="24.4585" x2="52.8955" y2="59.7119">
	<stop  offset="0" style="stop-color:#000000"/>
	<stop  offset="0.5" style="stop-color:#666666"/>
	<stop  offset="1" style="stop-color:#000000"/>
</linearGradient>
<rect x="19.845" y="24.318" fill="url(#SVGID_2_)" width="66.102" height="35.253"/>
<linearGradient id="SVGID_3_" gradientUnits="userSpaceOnUse" x1="52.8955" y1="59.5713" x2="52.8955" y2="24.3188">
	<stop  offset="0" style="stop-color:#36B5FF"/>
	<stop  offset="1" style="stop-color:#1B66D8"/>
</linearGradient>
<path fill="url(#SVGID_3_)" d="M83.302,57.809c0,0.969-0.794,1.763-1.764,1.763H24.253c-0.971,0-1.764-0.794-1.764-1.763V26.08
	c0-0.97,0.793-1.762,1.764-1.762h57.285c0.97,0,1.764,0.792,1.764,1.762V57.809z"/>
<path opacity="0.5" fill="#FFFFFF" d="M81.538,57.809H24.253c-0.971,0-1.764,0.088-1.764-0.881l0,0c0,0.969,0.793,1.762,1.764,1.762
	h57.285c0.97,0,1.764-0.793,1.764-1.762l0,0C83.302,57.896,82.508,57.809,81.538,57.809z"/>
<linearGradient id="SVGID_4_" gradientUnits="userSpaceOnUse" x1="52.8955" y1="24.3184" x2="52.8955" y2="59.7121">
	<stop  offset="0" style="stop-color:#000000"/>
	<stop  offset="1" style="stop-color:#404040"/>
</linearGradient>
<path fill="url(#SVGID_4_)" d="M81.538,25.198c0.486,0,0.882,0.397,0.882,0.882v31.729c0,0.486-0.396,0.881-0.882,0.881H24.253
	c-0.486,0-0.883-0.395-0.883-0.881V26.08c0-0.484,0.396-0.882,0.883-0.882H81.538 M81.538,24.318H24.253
	c-0.971,0-1.764,0.792-1.764,1.762v31.729c0,0.969,0.793,1.763,1.764,1.763h57.285c0.97,0,1.764-0.794,1.764-1.763V26.08
	C83.302,25.11,82.508,24.318,81.538,24.318L81.538,24.318z"/>
<polygon fill="#FFFFFF" points="47.133,33.532 63.129,41.574 47.133,50.796 "/>
<linearGradient id="SVGID_5_" gradientUnits="userSpaceOnUse" x1="54.5928" y1="37.9297" x2="54.5928" y2="50.2224">
	<stop  offset="0" style="stop-color:#FFFFFF"/>
	<stop  offset="1" style="stop-color:#CFCFCF"/>
</linearGradient>
<polygon fill="url(#SVGID_5_)" points="47.133,32.414 62.052,41.044 47.133,49.678 "/>
<path opacity="0.2" fill="#FFFFFF" d="M81.538,34.894v-7.05c0-0.975-0.789-1.764-1.762-1.764H26.015
	c-0.975,0-1.762,0.789-1.762,1.764V39.3L81.538,34.894z"/>
<path opacity="0.15" d="M76.392,27.853H19.845v31.719v6.169v0.881c0,0.975,0.789,1.763,1.764,1.763h58.309V31.379
	C79.917,29.434,78.335,27.853,76.392,27.853z"/>
<path opacity="0.3" d="M76.392,28.734H19.845v30.837v6.169v0.881c0,0.975,0.789,1.763,1.764,1.763h57.427V31.379
	C79.035,29.92,77.85,28.734,76.392,28.734z"/>
<path fill="#F1F1F2" d="M76.392,29.616H13.816c-0.976,0-1.763,0.789-1.763,1.763v49.355c0,0.974,0.787,1.762,1.763,1.762h62.575
	c0.973,0,1.763-0.788,1.763-1.762V31.379C78.154,30.405,77.364,29.616,76.392,29.616z"/>
<path opacity="0.4" fill="#FFFFFF" enable-background="new    " d="M76.685,80.881H13.228v-6.168h63.457V80.881z M76.685,36.814
	H13.228v-6.169h63.457V36.814z"/>
<linearGradient id="SVGID_6_" gradientUnits="userSpaceOnUse" x1="45.104" y1="29.6162" x2="45.104" y2="82.4966">
	<stop  offset="0" style="stop-color:#757575"/>
	<stop  offset="0.2424" style="stop-color:#000000"/>
	<stop  offset="0.8606" style="stop-color:#000000"/>
	<stop  offset="1" style="stop-color:#363636"/>
</linearGradient>
<path fill="url(#SVGID_6_)" d="M76.392,29.616H13.816c-0.976,0-1.763,0.789-1.763,1.763v49.355c0,0.974,0.787,1.762,1.763,1.762
	h62.575c0.973,0,1.763-0.788,1.763-1.762V31.379C78.154,30.405,77.364,29.616,76.392,29.616z M19.985,78.971
	c0,0.485-0.397,0.882-0.881,0.882h-3.525c-0.484,0-0.882-0.396-0.882-0.882v-1.763c0-0.484,0.397-0.881,0.882-0.881h3.525
	c0.483,0,0.881,0.396,0.881,0.881V78.971z M19.985,34.903c0,0.486-0.397,0.882-0.881,0.882h-3.525c-0.484,0-0.882-0.396-0.882-0.882
	v-1.762c0-0.484,0.397-0.882,0.882-0.882h3.525c0.483,0,0.881,0.397,0.881,0.882V34.903z M27.917,78.971
	c0,0.485-0.397,0.882-0.881,0.882h-3.525c-0.485,0-0.882-0.396-0.882-0.882v-1.763c0-0.484,0.396-0.881,0.882-0.881h3.525
	c0.483,0,0.881,0.396,0.881,0.881V78.971z M27.917,34.903c0,0.486-0.397,0.882-0.881,0.882h-3.525c-0.485,0-0.882-0.396-0.882-0.882
	v-1.762c0-0.484,0.396-0.882,0.882-0.882h3.525c0.483,0,0.881,0.397,0.881,0.882V34.903z M35.85,78.971
	c0,0.485-0.398,0.882-0.881,0.882h-3.525c-0.485,0-0.881-0.396-0.881-0.882v-1.763c0-0.484,0.396-0.881,0.881-0.881h3.525
	c0.482,0,0.881,0.396,0.881,0.881V78.971z M35.85,34.903c0,0.486-0.398,0.882-0.881,0.882h-3.525c-0.485,0-0.881-0.396-0.881-0.882
	v-1.762c0-0.484,0.396-0.882,0.881-0.882h3.525c0.482,0,0.881,0.397,0.881,0.882V34.903z M43.782,78.971
	c0,0.485-0.397,0.882-0.883,0.882h-3.524c-0.485,0-0.881-0.396-0.881-0.882v-1.763c0-0.484,0.396-0.881,0.881-0.881h3.524
	c0.485,0,0.883,0.396,0.883,0.881V78.971z M43.782,34.903c0,0.486-0.397,0.882-0.883,0.882h-3.524c-0.485,0-0.881-0.396-0.881-0.882
	v-1.762c0-0.484,0.396-0.882,0.881-0.882h3.524c0.485,0,0.883,0.397,0.883,0.882V34.903z M51.714,78.971
	c0,0.485-0.398,0.882-0.882,0.882h-3.525c-0.484,0-0.88-0.396-0.88-0.882v-1.763c0-0.484,0.396-0.881,0.88-0.881h3.525
	c0.483,0,0.882,0.396,0.882,0.881V78.971z M51.714,34.903c0,0.486-0.398,0.882-0.882,0.882h-3.525c-0.484,0-0.88-0.396-0.88-0.882
	v-1.762c0-0.484,0.396-0.882,0.88-0.882h3.525c0.483,0,0.882,0.397,0.882,0.882V34.903z M59.646,78.971
	c0,0.485-0.396,0.882-0.881,0.882h-3.525c-0.485,0-0.882-0.396-0.882-0.882v-1.763c0-0.484,0.396-0.881,0.882-0.881h3.525
	c0.484,0,0.881,0.396,0.881,0.881V78.971z M59.646,34.903c0,0.486-0.396,0.882-0.881,0.882h-3.525c-0.485,0-0.882-0.396-0.882-0.882
	v-1.762c0-0.484,0.396-0.882,0.882-0.882h3.525c0.484,0,0.881,0.397,0.881,0.882V34.903z M67.578,78.971
	c0,0.485-0.397,0.882-0.882,0.882h-3.524c-0.485,0-0.882-0.396-0.882-0.882v-1.763c0-0.484,0.396-0.881,0.882-0.881h3.524
	c0.484,0,0.882,0.396,0.882,0.881V78.971z M67.578,34.903c0,0.486-0.397,0.882-0.882,0.882h-3.524c-0.485,0-0.882-0.396-0.882-0.882
	v-1.762c0-0.484,0.396-0.882,0.882-0.882h3.524c0.484,0,0.882,0.397,0.882,0.882V34.903z M75.511,78.971
	c0,0.485-0.398,0.882-0.881,0.882h-3.526c-0.486,0-0.882-0.396-0.882-0.882v-1.763c0-0.484,0.396-0.881,0.882-0.881h3.526
	c0.482,0,0.881,0.396,0.881,0.881V78.971z M75.511,34.903c0,0.486-0.398,0.882-0.881,0.882h-3.526c-0.486,0-0.882-0.396-0.882-0.882
	v-1.762c0-0.484,0.396-0.882,0.882-0.882h3.526c0.482,0,0.881,0.397,0.881,0.882V34.903z"/>
<path opacity="0.55" fill="#FFFFFF" d="M76.392,29.616H13.816c-0.976,0-1.763,0.789-1.763,1.763v0.881
	c0-0.973,0.787-1.763,1.763-1.763h62.575c0.973,0,1.763,0.79,1.763,1.763v-0.881C78.154,30.405,77.364,29.616,76.392,29.616z"/>
<path opacity="0.1" fill="#FFFFFF" d="M13.816,82.496h62.575c0.973,0,1.763-0.788,1.763-1.762v-0.882
	c0,0.974-0.79,1.762-1.763,1.762H13.816c-0.976,0-1.763-0.788-1.763-1.762v0.882C12.054,81.708,12.841,82.496,13.816,82.496z"/>
<linearGradient id="SVGID_7_" gradientUnits="userSpaceOnUse" x1="45.104" y1="38.5688" x2="45.104" y2="73.8223">
	<stop  offset="0" style="stop-color:#000000"/>
	<stop  offset="0.5" style="stop-color:#666666"/>
	<stop  offset="1" style="stop-color:#000000"/>
</linearGradient>
<rect x="12.054" y="38.429" fill="url(#SVGID_7_)" width="66.101" height="35.253"/>
<linearGradient id="SVGID_8_" gradientUnits="userSpaceOnUse" x1="45.104" y1="72.3418" x2="45.104" y2="38.852">
	<stop  offset="0" style="stop-color:#AFED23"/>
	<stop  offset="0.8121" style="stop-color:#358C0C"/>
	<stop  offset="1" style="stop-color:#67AD1A"/>
</linearGradient>
<path fill="url(#SVGID_8_)" d="M75.511,71.92c0,0.97-0.794,1.762-1.764,1.762H16.461c-0.97,0-1.764-0.792-1.764-1.762V40.191
	c0-0.969,0.794-1.763,1.764-1.763h57.286c0.97,0,1.764,0.794,1.764,1.763V71.92z"/>
<path opacity="0.5" fill="#FFFFFF" d="M73.747,71.92H16.461c-0.97,0-1.764,0.088-1.764-0.882l0,0c0,0.97,0.794,1.764,1.764,1.764
	h57.286c0.97,0,1.764-0.794,1.764-1.764l0,0C75.511,72.008,74.717,71.92,73.747,71.92z"/>
<linearGradient id="SVGID_9_" gradientUnits="userSpaceOnUse" x1="45.104" y1="38.4287" x2="45.104" y2="73.8224">
	<stop  offset="0" style="stop-color:#000000"/>
	<stop  offset="1" style="stop-color:#404040"/>
</linearGradient>
<path fill="url(#SVGID_9_)" d="M73.747,39.311c0.485,0,0.883,0.396,0.883,0.881V71.92c0,0.487-0.397,0.882-0.883,0.882H16.461
	c-0.486,0-0.882-0.395-0.882-0.882V40.191c0-0.485,0.396-0.881,0.882-0.881H73.747 M73.747,38.429H16.461
	c-0.97,0-1.764,0.794-1.764,1.763V71.92c0,0.97,0.794,1.762,1.764,1.762h57.286c0.97,0,1.764-0.792,1.764-1.762V40.191
	C75.511,39.223,74.717,38.429,73.747,38.429L73.747,38.429z"/>
<polygon fill="#FFFFFF" points="39.34,47.643 55.337,55.687 39.34,64.907 "/>
<linearGradient id="SVGID_10_" gradientUnits="userSpaceOnUse" x1="46.7993" y1="52.042" x2="46.7993" y2="64.335">
	<stop  offset="0" style="stop-color:#FFFFFF"/>
	<stop  offset="1" style="stop-color:#CFCFCF"/>
</linearGradient>
<polygon fill="url(#SVGID_10_)" points="39.34,46.526 54.26,55.155 39.34,63.79 "/>
<path opacity="0.2" fill="#FFFFFF" d="M73.747,49.005v-7.051c0-0.972-0.79-1.763-1.764-1.763H18.223
	c-0.974,0-1.762,0.791-1.762,1.763v11.458L73.747,49.005z"/>
<rect fill="none" width="98" height="98"/>
</svg>
