<?xml version="1.0" encoding="utf-8"?>
<!-- Generator: Adobe Illustrator 14.0.0, SVG Export Plug-In  -->
<!DOCTYPE svg PUBLIC "-//W3C//DTD SVG 1.1//EN" "http://www.w3.org/Graphics/SVG/1.1/DTD/svg11.dtd" [
	<!ENTITY ns_flows "http://ns.adobe.com/Flows/1.0/">
]>
<svg version="1.1"
	 xmlns="http://www.w3.org/2000/svg" xmlns:xlink="http://www.w3.org/1999/xlink" xmlns:a="http://ns.adobe.com/AdobeSVGViewerExtensions/3.0/"
	 x="0px" y="0px" width="98px" height="98px" viewBox="0 0 98 98" enable-background="new 0 0 98 98" xml:space="preserve">
<defs>
</defs>
<linearGradient id="SVGID_1_" gradientUnits="userSpaceOnUse" x1="48.9995" y1="19" x2="48.9995" y2="79.0015">
	<stop  offset="0" style="stop-color:#757575"/>
	<stop  offset="0.2424" style="stop-color:#000000"/>
	<stop  offset="0.8606" style="stop-color:#000000"/>
	<stop  offset="1" style="stop-color:#363636"/>
</linearGradient>
<path fill="url(#SVGID_1_)" d="M84.5,19h-71c-1.105,0-2,0.896-2,2v56.001c0,1.105,0.895,2,2,2h71c1.104,0,2-0.895,2-2V21
	C86.5,19.896,85.603,19,84.5,19z M20.5,75.001c0,0.551-0.451,1-1,1h-4c-0.551,0-1-0.449-1-1v-2c0-0.549,0.449-1,1-1h4
	c0.549,0,1,0.451,1,1V75.001z M20.5,25c0,0.551-0.451,1-1,1h-4c-0.551,0-1-0.449-1-1v-2c0-0.549,0.449-1,1-1h4c0.549,0,1,0.451,1,1
	V25z M29.5,75.001c0,0.551-0.451,1-1,1h-4c-0.551,0-1-0.449-1-1v-2c0-0.549,0.449-1,1-1h4c0.549,0,1,0.451,1,1V75.001z M29.5,25
	c0,0.551-0.451,1-1,1h-4c-0.551,0-1-0.449-1-1v-2c0-0.549,0.449-1,1-1h4c0.549,0,1,0.451,1,1V25z M38.5,75.001c0,0.551-0.451,1-1,1
	h-4c-0.55,0-1-0.449-1-1v-2c0-0.549,0.449-1,1-1h4c0.549,0,1,0.451,1,1V75.001z M38.5,25c0,0.551-0.451,1-1,1h-4
	c-0.55,0-1-0.449-1-1v-2c0-0.549,0.449-1,1-1h4c0.549,0,1,0.451,1,1V25z M47.5,75.001c0,0.551-0.451,1-1,1h-4c-0.551,0-1-0.449-1-1
	v-2c0-0.549,0.449-1,1-1h4c0.549,0,1,0.451,1,1V75.001z M47.5,25c0,0.551-0.451,1-1,1h-4c-0.551,0-1-0.449-1-1v-2
	c0-0.549,0.449-1,1-1h4c0.549,0,1,0.451,1,1V25z M56.5,75.001c0,0.551-0.451,1-1,1h-4c-0.551,0-1-0.449-1-1v-2c0-0.549,0.449-1,1-1
	h4c0.549,0,1,0.451,1,1V75.001z M56.5,25c0,0.551-0.451,1-1,1h-4c-0.551,0-1-0.449-1-1v-2c0-0.549,0.449-1,1-1h4
	c0.549,0,1,0.451,1,1V25z M65.5,75.001c0,0.551-0.451,1-1,1h-4c-0.551,0-1-0.449-1-1v-2c0-0.549,0.449-1,1-1h4c0.549,0,1,0.451,1,1
	V75.001z M65.5,25c0,0.551-0.451,1-1,1h-4c-0.551,0-1-0.449-1-1v-2c0-0.549,0.449-1,1-1h4c0.549,0,1,0.451,1,1V25z M74.5,75.001
	c0,0.551-0.451,1-1,1h-4c-0.551,0-1-0.449-1-1v-2c0-0.549,0.449-1,1-1h4c0.549,0,1,0.451,1,1V75.001z M74.5,25c0,0.551-0.451,1-1,1
	h-4c-0.551,0-1-0.449-1-1v-2c0-0.549,0.449-1,1-1h4c0.549,0,1,0.451,1,1V25z M83.5,75.001c0,0.551-0.451,1-1,1h-4
	c-0.551,0-1-0.449-1-1v-2c0-0.549,0.449-1,1-1h4c0.549,0,1,0.451,1,1V75.001z M83.5,25c0,0.551-0.451,1-1,1h-4c-0.551,0-1-0.449-1-1
	v-2c0-0.549,0.449-1,1-1h4c0.549,0,1,0.451,1,1V25z"/>
<path opacity="0.55" fill="#FFFFFF" d="M84.5,19h-71c-1.105,0-2,0.896-2,2v1c0-1.104,0.895-2,2-2h71c1.104,0,2,0.896,2,2v-1
	C86.5,19.896,85.603,19,84.5,19z"/>
<path opacity="0.1" fill="#FFFFFF" d="M13.5,79.001h71c1.104,0,2-0.895,2-2v-1c0,1.105-0.896,2-2,2h-71c-1.105,0-2-0.895-2-2v1
	C11.5,78.106,12.395,79.001,13.5,79.001z"/>
<linearGradient id="SVGID_2_" gradientUnits="userSpaceOnUse" x1="48.9995" y1="29.1592" x2="48.9995" y2="69.1606">
	<stop  offset="0" style="stop-color:#000000"/>
	<stop  offset="0.5" style="stop-color:#666666"/>
	<stop  offset="1" style="stop-color:#000000"/>
</linearGradient>
<rect x="11.5" y="29" fill="url(#SVGID_2_)" width="75" height="40.001"/>
<linearGradient id="SVGID_3_" gradientUnits="userSpaceOnUse" x1="49" y1="69.001" x2="49" y2="29.0005">
	<stop  offset="0" style="stop-color:#36B5FF"/>
	<stop  offset="1" style="stop-color:#1B66D8"/>
</linearGradient>
<path fill="url(#SVGID_3_)" d="M83.5,67.001c0,1.1-0.9,2-2,2h-65c-1.1,0-2-0.9-2-2V31c0-1.1,0.9-2,2-2h65c1.1,0,2,0.9,2,2V67.001z"
	/>
<path opacity="0.5" fill="#FFFFFF" d="M81.5,67.001h-65c-1.1,0-2,0.1-2-1l0,0c0,1.1,0.9,2,2,2h65c1.1,0,2-0.9,2-2l0,0
	C83.5,67.101,82.599,67.001,81.5,67.001z"/>
<linearGradient id="SVGID_4_" gradientUnits="userSpaceOnUse" x1="48.9995" y1="29" x2="48.9995" y2="69.1607">
	<stop  offset="0" style="stop-color:#000000"/>
	<stop  offset="1" style="stop-color:#404040"/>
</linearGradient>
<path fill="url(#SVGID_4_)" d="M81.5,30c0.551,0,1,0.449,1,1v36.001c0,0.553-0.449,1-1,1h-65c-0.551,0-1-0.447-1-1V31
	c0-0.551,0.449-1,1-1H81.5 M81.5,29h-65c-1.1,0-2,0.9-2,2v36.001c0,1.1,0.9,2,2,2h65c1.1,0,2-0.9,2-2V31
	C83.5,29.9,82.599,29,81.5,29L81.5,29z"/>
<path opacity="0.2" fill="#FFFFFF" d="M81.5,41.001V33c0-1.104-0.896-2-2-2h-61c-1.105,0-2,0.896-2,2v13.001L81.5,41.001z"/>
<rect fill="none" width="98" height="98.001"/>
</svg>
