<?xml version="1.0" encoding="utf-8"?>
<!-- Generator: Adobe Illustrator 13.0.0, SVG Export Plug-In . SVG Version: 6.00 Build 14948)  -->
<!DOCTYPE svg PUBLIC "-//W3C//DTD SVG 1.1//EN" "http://www.w3.org/Graphics/SVG/1.1/DTD/svg11.dtd">
<svg version="1.1" id="Layer_1" xmlns="http://www.w3.org/2000/svg" xmlns:xlink="http://www.w3.org/1999/xlink" x="0px" y="0px"
	 width="90px" height="60px" viewBox="0 0 90 60" enable-background="new 0 0 90 60" xml:space="preserve">
<rect fill="none" width="90" height="60"/>
<rect x="18.418" y="4.259" fill="none" width="52.122" height="52.122"/>
<path fill="#FFFFFF" d="M65.31,13.55c-2.023,0-3.423,1.02-3.423,2.896c0,1.878,1.438,2.895,3.423,2.895
	c1.981,0,3.418-1.016,3.418-2.895C68.728,14.609,67.213,13.55,65.31,13.55z"/>
<polygon fill="#FFFFFF" points="18.387,5.143 63.849,14.281 63.376,56.156 20.192,44.013 "/>
<linearGradient id="SVGID_1_" gradientUnits="userSpaceOnUse" x1="-78.396" y1="-86.4761" x2="-35.0569" y2="-102.2478" gradientTransform="matrix(1 0 0 -1 102.52 -62.3613)">
	<stop  offset="0" style="stop-color:#E2E6E4"/>
	<stop  offset="1" style="stop-color:#A3740A"/>
</linearGradient>
<path fill="url(#SVGID_1_)" d="M24.586,13.188c0,9.118,0,17.046,0,26.335l25.559,6.7c0-9.29,0-18.583,0-27.879L24.586,13.188z"/>
<linearGradient id="SVGID_2_" gradientUnits="userSpaceOnUse" x1="-32.5571" y1="-91.5874" x2="-62.8272" y2="-102.6096" gradientTransform="matrix(1 0 0 -1 102.52 -62.3613)">
	<stop  offset="0" style="stop-color:#E2E6E4"/>
	<stop  offset="1" style="stop-color:#A3740A"/>
</linearGradient>
<path fill="url(#SVGID_2_)" d="M63.75,21.084l-13.602-2.742c0,9.296,0,18.591,0,27.881l13.268,3.484L63.75,21.084z"/>
<linearGradient id="SVGID_3_" gradientUnits="userSpaceOnUse" x1="-80.7158" y1="-88.146" x2="-42.7518" y2="-92.6767" gradientTransform="matrix(1 0 0 -1 102.52 -62.3613)">
	<stop  offset="0" style="stop-color:#E2E6E4"/>
	<stop  offset="1" style="stop-color:#A3740A"/>
</linearGradient>
<path fill="url(#SVGID_3_)" d="M18.811,12.021l1.147,26.29l4.628,1.209c0-9.283,0-17.218,0-26.333L18.811,12.021z"/>
<linearGradient id="SVGID_4_" gradientUnits="userSpaceOnUse" x1="-87.5044" y1="-71.4497" x2="7.3703" y2="-71.4497" gradientTransform="matrix(1 0 0 -1 102.52 -62.3613)">
	<stop  offset="0" style="stop-color:#E2E6E4"/>
	<stop  offset="1" style="stop-color:#A3740A"/>
</linearGradient>
<polygon fill="url(#SVGID_4_)" points="68.468,12.439 23.254,3.676 18.459,5.105 63.952,14.5 "/>
<linearGradient id="SVGID_5_" gradientUnits="userSpaceOnUse" x1="-69.998" y1="-59.1743" x2="-56.0859" y2="-106.7536" gradientTransform="matrix(1 0 0 -1 102.52 -62.3613)">
	<stop  offset="0" style="stop-color:#E6EEF4"/>
	<stop  offset="0.44" style="stop-color:#A3740A"/>
	<stop  offset="0.94" style="stop-color:#474105"/>
</linearGradient>
<path fill="url(#SVGID_5_)" d="M18.416,5.102l45.436,9.312l-0.474,41.733l-43.18-11.93L18.416,5.102z M60.782,19.716l3.069,0.664
	l0.015-3.684l-3.086-0.647L60.782,19.716z M55.989,18.599l2.531,0.592l-0.015-3.66l-2.545-0.569L55.989,18.599z M51.172,17.507
	l2.541,0.583l-0.037-3.636l-2.555-0.567L51.172,17.507z M46.331,16.425l2.556,0.572l-0.063-3.608l-2.564-0.551L46.331,16.425z
	 M41.486,15.361l2.56,0.557l-0.091-3.58l-2.571-0.543L41.486,15.361z M36.622,14.322l2.573,0.543l-0.119-3.556l-2.58-0.537
	L36.622,14.322z M31.747,13.289l2.574,0.531l-0.133-3.52l-2.59-0.532L31.747,13.289z M26.852,12.267l2.592,0.533L29.28,9.294
	l-2.598-0.519L26.852,12.267z M18.649,10.6l1.21,0.245l-0.209-3.45l-1.125-0.217L18.649,10.6z M21.954,11.267l2.588,0.522
	l-0.186-3.471l-2.607-0.516L21.954,11.267z M60.762,53.112l2.663,0.74l0.014-3.685l-2.685-0.727L60.762,53.112z M56.158,51.801
	l2.436,0.691l-0.025-3.661l-2.438-0.677L56.158,51.801z M51.538,50.502l2.441,0.685l-0.038-3.638l-2.452-0.678L51.538,50.502z
	 M46.91,49.217l2.452,0.673l-0.065-3.602l-2.458-0.668L46.91,49.217z M42.263,47.947l2.458,0.673l-0.088-3.587l-2.468-0.651
	L42.263,47.947z M37.599,46.694l2.466,0.664l-0.111-3.562l-2.472-0.646L37.599,46.694z M32.92,45.465l2.472,0.646l-0.133-3.524
	l-2.484-0.643L32.92,45.465z M28.225,44.244l2.483,0.644l-0.159-3.514l-2.494-0.628L28.225,44.244z M23.52,43.031L26,43.667
	l-0.182-3.485l-2.495-0.617L23.52,43.031z M20.07,42.154l1.22,0.313l-0.202-3.453l-1.109-0.25L20.07,42.154z M52.52,44.762
	l11.042,2.85l0.217-24.509L52.29,20.499L52.52,44.762z M27.251,38.416l22.191,5.717l-0.247-24.291l-22.94-4.979L27.251,38.416z
	 M19.925,36.588l4.208,1.096l-1.121-23.487l-4.202-0.852L19.925,36.588z"/>
<polygon fill="#6D5607" points="63.347,56.193 67.168,52.854 68.457,12.343 63.849,14.414 "/>
<polygon fill="#B18E3B" points="63.82,16.711 68.385,14.307 68.255,17.839 63.786,20.37 "/>
<polygon fill="#B18E3B" points="63.778,23.102 63.477,47.642 67.396,45.062 68.154,20.514 "/>
<g>
	<polygon fill="#B18E3B" points="61.264,19.599 61.204,24.216 66.038,20.417 66.191,16.231 	"/>
	<g>
		<g>
			<g>
				<g>
					<path fill="#496DA2" d="M59.977,25.915c-5.335,0-9.675-4.347-9.675-9.683c0-5.337,4.34-9.678,9.675-9.678
						c5.338,0,9.68,4.341,9.68,9.678C69.656,21.566,65.314,25.915,59.977,25.915L59.977,25.915z"/>
					<path fill="#FFFFFF" d="M59.98,8.568c4.231,0,7.661,3.431,7.661,7.665c0,4.232-3.43,7.665-7.661,7.665
						c-4.233,0-7.665-3.433-7.665-7.665C52.315,11.999,55.747,8.568,59.98,8.568 M59.98,4.536c-6.449,0-11.696,5.249-11.696,11.697
						S53.531,27.93,59.98,27.93c6.446,0,11.692-5.249,11.692-11.697S66.427,4.536,59.98,4.536L59.98,4.536z"/>
				</g>
			</g>
		</g>
	</g>
	<polygon fill="#FFFFFF" points="61.001,10.717 59.434,10.717 59.434,15.583 55.907,15.583 55.907,17.156 60.35,17.156 
		60.35,17.154 61.001,17.154 	"/>
</g>
</svg>
