<?xml version="1.0" encoding="utf-8"?>
<!-- Generator: Adobe Illustrator 13.0.0, SVG Export Plug-In . SVG Version: 6.00 Build 14948)  -->
<!DOCTYPE svg PUBLIC "-//W3C//DTD SVG 1.1//EN" "http://www.w3.org/Graphics/SVG/1.1/DTD/svg11.dtd">
<svg version="1.1" id="Layer_1" xmlns="http://www.w3.org/2000/svg" xmlns:xlink="http://www.w3.org/1999/xlink" x="0px" y="0px"
	 width="90px" height="60px" viewBox="0 0 90 60" enable-background="new 0 0 90 60" xml:space="preserve">
<rect fill="none" width="90" height="60"/>
<rect x="18.418" y="4.259" fill="none" width="52.122" height="52.122"/>
<rect x="18.418" y="4.259" fill="#44A51C" width="52.122" height="52.122"/>
<path fill="#FFFFFF" d="M30.699,21.384c-6.723,0-10.255,4.613-10.255,11.183c0,6.648,2.6,11.881,10.187,11.881
	c6.987,0,10.22-4.733,10.22-11.734C40.851,26.031,37.664,21.384,30.699,21.384z M30.628,40.856c-3.583,0-3.74-5.087-3.74-8.418
	c0-3.245,0.271-7.463,3.74-7.463c3.304,0,3.768,4.46,3.768,7.463C34.396,36.311,34.202,40.856,30.628,40.856z"/>
<path fill="#FFFFFF" d="M49.429,44.447c2.729,0,3.691-1.367,4.339-3.355l5.883-19.393h-5.487l-4.206,16.777l-3.964-16.777h-6.495
	l5.58,19.393C45.691,43.08,46.693,44.447,49.429,44.447z"/>
<path fill="#FFFFFF" d="M65.31,13.55c-2.023,0-3.423,1.02-3.423,2.896c0,1.878,1.438,2.895,3.423,2.895
	c1.981,0,3.418-1.016,3.418-2.895C68.728,14.609,67.213,13.55,65.31,13.55z"/>
<path fill="#FFFFFF" d="M63.046,43.828c0.454,0.331,1.184,0.619,2.204,0.619c1.069,0,1.77-0.292,2.229-0.619
	c0.879-0.625,0.879-1.677,0.879-2.243V21.699h-6.124c0,0-0.227,0-0.423,0c-0.592,0-1.089,0.013-1.427,0.477
	c-0.168,0.216-0.393,0.611-0.393,1.318c0,0.738,0.225,1.093,0.393,1.316c0.338,0.47,0.835,0.474,1.427,0.474
	c0.196,0,0.362-0.003,0.362-0.003v16.305C62.167,42.151,62.167,43.203,63.046,43.828z"/>
</svg>
