<?xml version="1.0" encoding="utf-8"?>
<!-- Generator: Adobe Illustrator 13.0.0, SVG Export Plug-In . SVG Version: 6.00 Build 14948)  -->
<!DOCTYPE svg PUBLIC "-//W3C//DTD SVG 1.1//EN" "http://www.w3.org/Graphics/SVG/1.1/DTD/svg11.dtd">
<svg version="1.1" id="Layer_1" xmlns="http://www.w3.org/2000/svg" xmlns:xlink="http://www.w3.org/1999/xlink" x="0px" y="0px"
	 width="90px" height="60px" viewBox="0 0 90 60" enable-background="new 0 0 90 60" xml:space="preserve">
<g>
	
		<radialGradient id="SVGID_1_" cx="-53.6362" cy="-75.792" r="47.1888" fx="-54.4808" fy="-77.886" gradientTransform="matrix(1 0 0 -1 102.52 -62.3613)" gradientUnits="userSpaceOnUse">
		<stop  offset="0" style="stop-color:#FFFFFF"/>
		<stop  offset="0.5337" style="stop-color:#A2C2DD"/>
		<stop  offset="0.8652" style="stop-color:#6C83BB"/>
		<stop  offset="1" style="stop-color:#003D6D"/>
	</radialGradient>
	<path fill="url(#SVGID_1_)" d="M49.838,29.932h19.516c0-0.021,0.002-0.038,0.002-0.057c0-14.088-11.418-25.505-25.502-25.505
		S18.348,15.787,18.348,29.875c0,14.083,11.422,25.502,25.506,25.502c2.063,0,4.061-0.272,5.984-0.733V29.932z"/>
	
		<radialGradient id="SVGID_2_" cx="-271.7451" cy="749.8672" r="39.4641" gradientTransform="matrix(1 0 0 1 317.04 -723.0391)" gradientUnits="userSpaceOnUse">
		<stop  offset="0" style="stop-color:#A2C2DD"/>
		<stop  offset="0.1" style="stop-color:#A2C2DD"/>
		<stop  offset="0.7135" style="stop-color:#6C83BB"/>
		<stop  offset="0.9888" style="stop-color:#003D6D"/>
		<stop  offset="1" style="stop-color:#003D6D"/>
	</radialGradient>
	<path fill="url(#SVGID_2_)" d="M31.033,7.786c-1.16,0.691-4.26,2.886-4.303,3.748c-0.041,0.857,0.891-1.011,1.766-0.692
		c0.174,0,1.242-1.498,3.229-2.454c0.863-0.816,2.414-0.345,2.414-0.345s4.604-1.721,4.346-1.29
		c-0.701,1.175-4.393,1.851-4.953,2.109c-0.559,0.26-3.658,2.326-1.074,1.506c0.475-0.042,1.807-0.085,2.455,0.133
		c0.648,0.212,1.701-0.917,2.971-0.649c0.52-0.262,1.551-0.819,1.811-0.819c0.258,0,1.207-0.086,1.162-1.201
		c0,0,0.693-1.579,0.904-2.2c0.58-0.158,1.25-1.075,1.25-1.075c-1.809-0.259-6.158,0.907-6.801,1.075
		C36.07,5.762,32.412,7.445,31.033,7.786z"/>
	
		<radialGradient id="SVGID_3_" cx="-269.1685" cy="743.6016" r="28.9131" gradientTransform="matrix(1 0 0 1 317.04 -723.0391)" gradientUnits="userSpaceOnUse">
		<stop  offset="0" style="stop-color:#A2C2DD"/>
		<stop  offset="0.1" style="stop-color:#A2C2DD"/>
		<stop  offset="0.7135" style="stop-color:#6C83BB"/>
		<stop  offset="0.9888" style="stop-color:#003D6D"/>
		<stop  offset="1" style="stop-color:#003D6D"/>
	</radialGradient>
	<path fill="url(#SVGID_3_)" d="M45.375,47.486l-0.863,0.606c0,0-0.795,0.013-0.904,0.345c-0.389,1.193-0.258,2.794,0.686,2.582
		c0.949-0.218,1.207-1.641,1.207-1.641S46.451,47.271,45.375,47.486z"/>
	
		<radialGradient id="SVGID_4_" cx="-271.4248" cy="-808.7124" r="39.553" fx="-270.6078" fy="-808.8184" gradientTransform="matrix(1 0 0 -1 317.04 -796.3809)" gradientUnits="userSpaceOnUse">
		<stop  offset="0" style="stop-color:#E6EEF4"/>
		<stop  offset="0.4438" style="stop-color:#4A9900"/>
		<stop  offset="0.9382" style="stop-color:#0E4E58"/>
		<stop  offset="1" style="stop-color:#0E4E58"/>
	</radialGradient>
	<path fill="url(#SVGID_4_)" d="M56.785,8.346l1.334,2.888l3.098,1.117c0,0,0.777,0.945,1.035,1.162
		c0.387,1.723,1.248,3.573,1.42,3.659c0.17,0.085,0.945,0.341,1.207,0.299c0.17,0.95-0.09,0.95-0.09,0.95l-1.248-0.605l0.514,2.112
		l2.41,4.09c-0.301,0.646-1.463,4.478-1.463,4.478s0.633,0.58,1.02,1.4c-2.135,0-16.184,0.036-16.184,0.036
		s-0.078,0.647-0.078,1.491c-0.756,0.083-1.406,0.191-1.291,0.306c1.725,1.205,1.035,2.067,1.035,2.067l-2.713,2.41
		c0,0-2.283,1.035-2.971,1.204c-1.248,0.774,0.127,1.079,1.506,0.734c1.377-0.344,1.248,0.217,1.033,0.777
		c-0.775,1.892-2.15,3.096-3.059,3.441c-1.891,1.335-2.324,3.316-1.42,4.134c0,0,0.086,1.938-0.561,1.978
		c-0.645,0.044-1.551,0.733-1.551,1.032c0,0.304-0.686,1.551-0.947,1.764c-0.904,1.162-2.068,1.033-2.586,0.775
		c-2.369,0.467-4.346-3.356-4.475-3.701c-0.129-0.344-1.852-1.203-1.291-2.755c0.555-1.553-2.072-5.394-3.447-8.74
		c-0.176-0.15-2.023-0.607-3.012-0.904c-0.99-0.302-1.422-2.668-1.854-3.662c-0.428-0.991,0.732-4.82,0.775-5.082
		c0.045-0.257,4.867-3.743,4.867-3.743l-0.178-1.51c0,0,1.555-2.109,1.85-1.42c0.301,0.688,1.814,0.558,1.68-0.429
		c-0.129-0.991,0.219-1.468,0.602-1.508c0.389-0.044,0.045-0.859-0.428-1.466c-0.471-0.602,0.732-0.775,1.51-1.506
		c0.777-0.733,0.215,1.594,0.215,2.368c0,0.775,2.627-1.292,2.754-1.42c-0.299-1.506,0.908-1.896,1.25-1.938
		c0.346-0.044,1.896-0.948,2.283-1.337c0.385-0.385,1.465-0.385,1.811-0.344c0.342,0.041,1.891,1.291,2.279,1.291
		s3.447-0.818,3.533-1.378c0.086-0.561,0.385-0.862,0.947-1.075c0.559-0.216,0.646-2.027,0.646-2.027s2.582-0.602,2.969-0.731
		C51.91,8.9,51.566,8.126,51.439,7.78c0.471-1.031-1.98-2.045-1.08-1.981C53.898,6.065,56.395,7.743,56.785,8.346z M28.193,23.59
		l0.344,0.432c0,0,1.781,0.182,3.543,0.865c0.266,0.271-0.055,1.545-0.055,1.545s1.893,2.582,2.279,2.113
		c0.385-0.478,0.904-0.909,1.506-0.478c0.605,0.43,2.068,0.946,2.801,0.946c0.305,0.086,1.807,0.561,1.764-1.72
		c-0.592-0.821-2.109-0.687-2.367-0.905c-0.258-0.217-0.773-1.767-0.773-1.767l-0.518,0.13c0,0-0.086,1.076-0.387,1.076
		c-0.303,0-0.949-1.634-0.949-1.634l0.09-0.862l-0.99-1.201c0,0-0.648,0.297,0.602,1.893c0,0-0.863,0.903-1.504,0.943
		c0.17-0.213,0.561-1.204,0.561-1.204s-1.969-2.436-2.371-2.108c-0.471,0.387-1.848,1.117-1.848,1.117l-0.906,0.775L28.193,23.59z
		 M38.613,15.581c-0.926,1.492-2.273,1.916-2.154,2.451c0.047,0.221,1.338,0.521,1.551-0.083c0.217-0.605,0.992-0.733,0.992-0.991
		S38.734,15.386,38.613,15.581z M40.379,22.943c-0.215-0.086-0.645-0.86-1.162-0.304c-0.516,0.561-1.164,1.81-0.516,1.897
		c0.645,0.087,1.594-0.259,1.805-0.088c0.219,0.175,1.865,0.852,2.115,0C43.041,23.006,40.379,22.943,40.379,22.943z M39.516,30.735
		c-0.018,0.264,1.078,2.846,1.078,2.846s-0.09,0.858,0.129,1.161c0.217,0.304,0.99,1.895,1.852,2.153
		c1.242-1.435-1.16-3.314-1.16-3.314l-0.09-0.735C41.324,32.846,39.604,29.53,39.516,30.735z M45.283,29.963l0.045,0.731
		l1.553,1.721c0,0,1.422-0.127,1.164-1.158l-1.25-0.435L45.283,29.963z"/>
	<g>
		<rect x="51.773" y="31.872" fill="#FFFFFF" width="20.475" height="24.349"/>
		<rect x="68.531" y="39.467" fill="none" width="1.857" height="1.859"/>
		<rect x="68.527" y="43.194" fill="none" width="1.861" height="1.857"/>
		<rect x="68.527" y="35.744" fill="none" width="1.861" height="1.857"/>
		<rect x="53.637" y="35.744" fill="none" width="1.861" height="1.857"/>
		<rect x="68.531" y="46.91" fill="none" width="1.857" height="1.862"/>
		<rect x="53.637" y="50.639" fill="none" width="1.861" height="1.858"/>
		<rect x="68.527" y="50.639" fill="none" width="1.861" height="1.858"/>
		<rect x="53.637" y="39.467" fill="none" width="1.861" height="1.859"/>
		<rect x="53.635" y="43.189" fill="none" width="1.863" height="1.857"/>
		<rect x="53.635" y="46.914" fill="none" width="1.863" height="1.858"/>
		<polygon fill="#A2C2DD" points="66.664,56.229 66.664,31.879 57.359,31.879 57.359,56.149 		"/>
		<path fill="#496DA2" d="M70.385,31.863v2.019h-1.857v-2.019h-1.863v0.016v5.723h-9.307v-5.723v-0.016h-1.861v2.019h-1.861v-2.019
			h-1.863v24.351h1.863v-1.858h1.859v1.858h1.861v-0.024v-5.554h9.307v5.554v0.031h1.859v-1.858h1.859v1.858h1.867V31.863H70.385z
			 M68.531,46.91h1.857v1.862h-1.857V46.91z M70.385,41.326h-1.857v-1.859h1.857V41.326z M70.385,43.189v1.862h-1.857v-1.862H70.385
			z M70.385,35.744v1.857h-1.857v-1.857H70.385z M57.359,39.467h9.311v9.311h-9.311V39.467z M55.498,35.744v1.857h-1.861v-1.857
			H55.498z M53.637,45.052v-1.862h1.859v1.862H53.637L53.637,45.052z M55.498,46.91v1.862h-1.861V46.91H55.498z M53.637,41.326
			v-1.859h1.859v1.859H53.637z M53.637,52.497v-1.861h1.859v1.861H53.637z M68.531,52.497v-1.861h1.857v1.861H68.531z"/>
	</g>
	
		<linearGradient id="SVGID_5_" gradientUnits="userSpaceOnUse" x1="-77.3623" y1="-73.5371" x2="-40.5434" y2="-110.3551" gradientTransform="matrix(1 0 0 -1 102.52 -62.3613)">
		<stop  offset="0" style="stop-color:#A2C2DD"/>
		<stop  offset="0.1" style="stop-color:#A2C2DD"/>
		<stop  offset="0.7135" style="stop-color:#6C83BB"/>
		<stop  offset="0.9888" style="stop-color:#003D6D"/>
		<stop  offset="1" style="stop-color:#003D6D"/>
	</linearGradient>
	<path fill="url(#SVGID_5_)" d="M49.838,54.549c-1.924,0.466-3.922,0.742-5.984,0.742c-14.012,0-25.414-11.4-25.414-25.416
		c0-14.015,11.4-25.418,25.414-25.418c14.012,0,25.414,11.401,25.414,25.417c0,0.02-0.004,0.037-0.004,0.056h0.688
		c0-0.02,0.004-0.038,0.004-0.056c0-14.394-11.707-26.104-26.1-26.104S17.754,15.48,17.754,29.874
		c0,14.395,11.709,26.103,26.102,26.103c2.061,0,4.059-0.266,5.984-0.721v-0.707H49.838z"/>
</g>
<rect fill="none" width="90" height="60"/>
</svg>
