<?xml version="1.0" encoding="UTF-8"?>
<!DOCTYPE svg PUBLIC "-//W3C//DTD SVG 1.1 Tiny//EN" "http://www.w3.org/Graphics/SVG/1.1/DTD/svg11-tiny.dtd">
<svg xmlns="http://www.w3.org/2000/svg" xmlns:xlink="http://www.w3.org/1999/xlink" baseProfile="tiny" height="143px" version="1.1" viewBox="0 0 174 143" width="174px" x="0px" y="0px">
<g>
<rect fill="none" height="143" width="174"/>
<polygon fill="#828282" points="74.024,96.548 74.024,96.548 74.024,87.955 79.305,87.955 79.305,89.406 75.759,89.406    75.759,91.314 78.525,91.314 78.525,92.768 75.759,92.768 75.759,95.096 79.383,95.096 79.383,96.548  "/>
<path d="M88.227,96.547h-1.641v-3.17c0-0.669-0.035-1.104-0.105-1.301s-0.185-0.35-0.342-0.459   c-0.158-0.109-0.349-0.164-0.57-0.164c-0.285,0-0.54,0.078-0.767,0.234c-0.227,0.151-0.381,0.358-0.465,0.619   c-0.084,0.258-0.126,0.73-0.126,1.428v2.813h-1.64v-6.232h1.53v0.914c0.54-0.69,1.222-1.039,2.042-1.039   c0.361,0,0.692,0.063,0.992,0.195c0.299,0.131,0.525,0.297,0.68,0.5c0.153,0.203,0.264,0.434,0.32,0.69   c0.061,0.257,0.092,0.627,0.092,1.104V96.547L88.227,96.547z" fill="#828282"/>
<path d="M91.711,92.221h-1.555c0.169-0.611,0.527-1.298,0.939-1.593c0.408-0.294,1.021-0.44,1.834-0.44   c0.732,0,1.279,0.088,1.644,0.265c0.36,0.175,0.614,0.396,0.761,0.659c0.148,0.27,0.223,0.762,0.223,1.476l-0.031,1.92   c0,0.55,0.025,0.95,0.078,1.21c0.057,0.264,0.151,0.537,0.297,0.834h-1.625c-0.043-0.104-0.096-0.266-0.155-0.479   c-0.027-0.096-0.05-0.155-0.062-0.188c-0.283,0.274-0.584,0.479-0.904,0.617c-0.317,0.14-0.66,0.206-1.023,0.206   c-0.645,0-1.146-0.174-1.52-0.521c-0.367-0.348-0.555-0.785-0.555-1.313c0-0.354,0.084-0.662,0.252-0.938   c0.168-0.271,0.403-0.483,0.707-0.631c0.303-0.146,0.74-0.273,1.313-0.384c0.771-0.146,1.305-0.276,1.603-0.401v-0.17   c0-0.322-0.078-0.553-0.236-0.688c-0.153-0.139-0.45-0.206-0.891-0.206c-0.295,0-0.525,0.062-0.688,0.177   C91.945,91.749,91.814,91.925,91.711,92.221 M93.932,93.596c-0.213,0.069-0.549,0.152-1.011,0.25   c-0.459,0.096-0.76,0.19-0.901,0.284c-0.215,0.149-0.324,0.343-0.324,0.575c0,0.229,0.091,0.427,0.264,0.593   c0.174,0.167,0.396,0.25,0.661,0.25c0.298,0,0.583-0.097,0.854-0.291c0.197-0.146,0.332-0.327,0.396-0.54   c0.044-0.14,0.065-0.404,0.065-0.797v-0.324" fill="#828282"/>
<path d="M99.314,96.547v-8.594h1.641v3.102c0.507-0.578,1.107-0.867,1.802-0.867c0.757,0,1.382,0.275,1.877,0.824   c0.495,0.551,0.742,1.34,0.742,2.369c0,1.064-0.251,1.885-0.757,2.459c-0.504,0.576-1.115,0.863-1.836,0.863   c-0.354,0-0.703-0.092-1.047-0.273c-0.346-0.183-0.646-0.449-0.891-0.797v0.914H99.314 M100.922,93.316   c0,0.646,0.102,1.123,0.307,1.433c0.287,0.438,0.666,0.657,1.145,0.657c0.361,0,0.676-0.155,0.936-0.467   c0.258-0.313,0.387-0.805,0.387-1.476c0-0.712-0.131-1.229-0.391-1.542c-0.261-0.313-0.592-0.473-0.992-0.473   c-0.396,0-0.729,0.15-0.988,0.461C101.055,92.223,100.922,92.689,100.922,93.316" fill="#828282"/>
<path d="M115.986,94.859h1.744c-0.211,0.602-0.545,1.059-0.998,1.373c-0.455,0.313-1.023,0.472-1.707,0.472   c-1.08,0-1.881-0.354-2.399-1.063c-0.409-0.564-0.614-1.283-0.614-2.146c0-1.033,0.271-1.845,0.809-2.431   c0.539-0.584,1.225-0.877,2.049-0.877c0.926,0,1.652,0.31,2.188,0.918c0.535,0.613,0.791,1.556,0.771,2.815H113.7   c0.012,0.488,0.144,0.868,0.397,1.14c0.252,0.272,0.564,0.408,0.943,0.408c0.257,0,0.477-0.07,0.646-0.212   C115.811,95.165,115.908,95.031,115.986,94.859 M116.184,92.906c-0.012-0.475-0.135-0.836-0.367-1.082   c-0.23-0.248-0.519-0.371-0.854-0.371c-0.357,0-0.654,0.131-0.889,0.391c-0.233,0.262-0.35,0.615-0.346,1.063H116.184   L116.184,92.906" fill="#828282"/>
<path d="M126.186,96.547h-1.531v-0.914c-0.252,0.355-0.553,0.623-0.896,0.803c-0.344,0.182-0.69,0.271-1.042,0.271   c-0.713,0-1.322-0.289-1.83-0.865c-0.509-0.576-0.763-1.383-0.763-2.416c0-1.057,0.247-1.855,0.743-2.406   c0.492-0.553,1.119-0.824,1.877-0.824c0.693,0,1.295,0.289,1.802,0.867v-3.104h1.642v8.592L126.186,96.547 M121.811,93.316   c0,0.664,0.092,1.146,0.275,1.441c0.268,0.434,0.641,0.646,1.118,0.646c0.38,0,0.704-0.16,0.971-0.483   c0.267-0.321,0.4-0.806,0.4-1.446c0-0.718-0.13-1.23-0.39-1.55c-0.261-0.313-0.588-0.473-0.994-0.473   c-0.396,0-0.721,0.155-0.984,0.467C121.941,92.232,121.811,92.695,121.811,93.316" fill="#828282"/>
<path d="M107.619,87.954h1.465v6.968c0,0.773,0.23,1.234,0.691,1.383c-0.229,0.43-0.613,0.646-1.16,0.646   c-0.664,0-0.996-0.461-0.996-1.385V87.954L107.619,87.954z" fill="#828282"/>
<path d="M79.853,70.617c-1.015,0-2.356-0.167-2.356-0.167s-8.336,4.231-9.764,5.073   c-0.02-0.049,1.236-2.258,1.547-3.107c0.063-0.17-0.146-0.447-0.371-0.447c-0.582,0-1.314,0.101-2.509,0.095   c-11.423,0-16.711-5.935-16.711-8.958c0-4.03,6.263-8.743,15.843-8.743c4.238,0,10.453,0.671,13.107,2.34   c0.88-0.174,1.783-0.26,2.673-0.26c1.288,0,2.606,0.196,3.807,0.6l0,0c-6.327-4.967-12.986-6.204-19.587-6.204   c-12.972,0-21.33,5.268-21.33,11.995c0,6.767,10.156,12.78,21.33,12.78c0.688,0.021,1.232,0.121,1.04,0.559   c-0.184,0.417-2.91,4.688-3.744,6.221c-0.243,0.443,0.051,0.73,0.581,0.588l20.527-12.84l0,0   C82.847,70.432,81.506,70.617,79.853,70.617z" fill="#2976BB"/>
<path d="M60.564,68.814h5.172l1.141-4.441c0.596-2.194,1.689-2.959,3.877-2.959c0.645,0,1.342,0.102,1.937,0.253   l0.994-3.571c-0.498-0.102-0.994-0.153-1.841-0.153c-1.289,0-2.979,0.818-3.875,1.939h-0.05l0.398-1.685h-4.969L60.564,68.814   L60.564,68.814z" fill="#FFFFFF"/>
<path d="M78.344,62.333c0.417-1.124,1.353-1.787,2.762-1.787c1.406,0,2.084,0.612,2.084,1.43   c0,0.102-0.054,0.253-0.054,0.357H78.344L78.344,62.333 M82.197,65.75c-0.261,0.358-0.935,0.765-2.137,0.765   c-1.667,0-2.188-0.969-2.188-2.091h10.056c0.209-0.663,0.26-1.275,0.26-1.838c0-3.316-3.75-4.645-6.875-4.645   c-3.543,0-8.493,1.581-8.493,6.482c0,2.552,2.034,4.695,7.034,4.695c6.096,0,7.136-2.653,7.501-3.37h-5.157L82.197,65.75" fill="#FFFFFF"/>
<path d="M93.861,65.801c0-0.816,0.875-1.12,1.75-1.225c0.977-0.051,1.955-0.101,2.828-0.459   c-0.358,1.581-1.078,2.602-2.881,2.602C94.736,66.719,93.861,66.514,93.861,65.801L93.861,65.801 M95.404,61.412   c0.31-0.766,1.082-1.071,2.111-1.071c0.82,0,1.692,0.203,1.692,0.918c0,1.326-2.419,1.123-3.911,1.223   c-4.013,0.206-6.734,0.972-6.734,3.781c0,2.04,2.105,2.856,4.521,2.856c1.545,0,3.352-0.46,4.271-1.327h0.054   c0,0.356,0.052,0.713,0.206,1.021h5.195c-0.207-0.461-0.104-0.103-0.207-0.919c0-0.716,1.696-5.462,1.696-7.146   c0-2.551-4.271-2.807-6.791-2.807c-3.396,0-6.276,0.665-7.103,3.472L95.404,61.412L95.404,61.412" fill="#FFFFFF"/>
<polygon fill="#FFFFFF" points="104.313,68.815 104.313,68.815 109.523,68.815 113.418,54.217 108.207,54.217  "/>
<polygon fill="#FFFFFF" points="115.221,66.548 115.221,66.548 114.289,66.548 114.289,68.96 113.516,68.96 113.516,66.548    112.584,66.548 112.584,65.971 115.221,65.971  "/>
<polygon fill="#FFFFFF" points="119.084,68.96 119.084,68.96 118.313,68.96 118.313,66.958 117.762,68.258 117.229,68.258    116.68,66.958 116.68,68.96 115.943,68.96 115.943,65.971 116.848,65.971 117.516,67.471 118.184,65.971 119.084,65.971  "/>
<rect fill="#99CCCC" height="16" width="3.496" x="85.231" y="2.39"/>
<rect fill="#99CCCC" height="15.988" transform="matrix(-0.9241 -0.3821 0.3821 -0.9241 205.8219 70.7539)" width="3.494" x="108.19" y="6.946"/>
<rect fill="#99CCCC" height="15.998" transform="matrix(0.7072 0.707 -0.707 0.7072 57.6263 -83.3022)" width="3.494" x="127.635" y="19.921"/>
<rect fill="#99CCCC" height="15.991" transform="matrix(0.3827 0.9239 -0.9239 0.3827 131.839 -102.3118)" width="3.496" x="140.731" y="39.504"/>
<rect fill="#99CCCC" height="3.496" width="16" x="139" y="68.67"/>
<rect fill="#99CCCC" height="16.003" transform="matrix(0.3837 -0.9234 0.9234 0.3837 1.4789 189.0872)" width="3.494" x="140.663" y="85.434"/>
<rect fill="#99CCCC" height="16.02" transform="matrix(0.7079 -0.7063 0.7063 0.7079 -41.9346 124.3225)" width="3.498" x="127.606" y="104.856"/>
<rect fill="#99CCCC" height="15.98" transform="matrix(-0.9237 0.383 -0.383 -0.9237 259.5883 200.0274)" width="3.493" x="108.134" y="117.866"/>
<rect fill="#99CCCC" height="16" width="3.495" x="85.216" y="122.391"/>
<rect fill="#99CCCC" height="15.997" transform="matrix(0.9238 0.3828 -0.3828 0.9238 53.0481 -14.9199)" width="3.495" x="62.265" y="117.832"/>
<rect fill="#99CCCC" height="16.01" transform="matrix(-0.7073 -0.7069 0.7069 -0.7073 -3.6993 224.0054)" width="3.492" x="42.778" y="104.764"/>
<rect fill="#99CCCC" height="15.997" transform="matrix(-0.3823 -0.924 0.924 -0.3823 -42.6359 158.1622)" width="3.492" x="29.799" y="85.333"/>
<rect fill="#99CCCC" height="3.495" width="16" x="19" y="68.515"/>
<rect fill="#99CCCC" height="15.984" transform="matrix(-0.3818 0.9242 -0.9242 -0.3818 87.495 36.434)" width="3.493" x="29.816" y="39.486"/>
</g>
</svg>
