<?xml version="1.0" encoding="UTF-8" standalone="no"?>
<!DOCTYPE svg PUBLIC "-//W3C//DTD SVG 1.1 Tiny//EN" "http://www.w3.org/Graphics/SVG/1.1/DTD/svg11-tiny.dtd">
<svg xmlns="http://www.w3.org/2000/svg" xmlns:xlink="http://www.w3.org/1999/xlink" width="36" height="36" viewBox="0 0 36 36">
<rect fill="none" height="36" width="36"/>
<polygon fill="#FFFFFF" points="35.216,31.999 33.216,31.999 2.783,31.999 0.783,31.999 0.783,30 0.783,6 0.783,4 2.783,4 33.216,4 35.216,4 35.216,6 35.216,30 35.216,31.999 "/>
<path d="M2.783,6v24h30.433V6H2.783z M31.169,28H4.833V8h26.337V28z"/>
<path d="M27.071,31.98l-1.37-1.42l-4.159-4.315l-1.613-1.673l1.921-1.313c0.706-0.482,1.309-1.098,1.79-1.829 l1.352-2.052l1.703,1.768l4.22,4.377l1.358,1.41l-1.404,1.365l-2.383,2.311L27.071,31.98L27.071,31.98z" fill="#FFFFFF"/>
<path d="M29.498,26.888l-4.218-4.377c-0.613,0.935-1.4,1.742-2.322,2.371l4.157,4.315L29.498,26.888z"/>
<path d="M18.001,27.415c-5.333,0-9.669-4.34-9.669-9.677s4.336-9.677,9.669-9.677c5.329,0,9.666,4.34,9.666,9.677 S23.331,27.415,18.001,27.415L18.001,27.415z" fill="#FFFFFF"/>
<path d="M18.002,10.026c-4.254,0-7.705,3.453-7.705,7.712c0,4.257,3.451,7.712,7.705,7.712c4.252,0,7.701-3.455,7.701-7.712 C25.703,13.479,22.254,10.026,18.002,10.026z M18.002,23.393c-3.116,0-5.651-2.536-5.651-5.655s2.535-5.655,5.651-5.655 c3.113,0,5.65,2.536,5.65,5.655S21.115,23.393,18.002,23.393z"/>
<polygon points="22.542,16.73 19.126,16.73 19.126,13.312 16.872,13.312 16.872,16.73 13.458,16.73 13.458,18.989 16.872,18.989 16.872,22.407 19.126,22.407 19.126,18.989 22.542,18.989 "/>
</svg>